# File created by Blade
# Date/Time:  Wed Sep 24 19:10:19 2014
# Frame Rate: 120.000 fps
#------------------------------------------------------
:FULLY-SPECIFIED
:DEGREES
2242
root -9.196831 33.123269 -5.632736 18.985767 31.878163 20.356724
Spine 0.778414 -0.941546 -3.054726
Head -5.215362 11.599384 -1.875512
LeftShoulder -0.285165 6.352258 13.814155
LeftArm 40.032230 -11.361940 -78.289770
LeftForeArm 2.915480 0.000000 65.367669
LeftHand -25.677875 -0.000000 32.671080
LeftHandThumb1 -26.253704 0.000000 33.147579
RightShoulder -13.975653 12.132386 -20.362325
RightArm -11.347485 -27.197581 76.064702
RightForeArm -21.773145 -0.000000 28.767600
RightHand -4.024297 -0.000000 11.052006
RightHandThumb1 -24.326973 -0.000000 -32.862282
LeftUpLeg -83.666245 32.098535 -8.628348
LeftLeg 84.517047 -0.000000 -0.000000
LeftFoot 36.802017 16.290380 -21.375488
LeftToeBase 7.651311 -0.000000 -0.000000
RightUpLeg -21.530155 -17.652688 -6.392880
RightLeg 23.051449 -0.000000 -0.000000
RightFoot -13.927144 -31.469006 -3.686527
RightToeBase 0.258275 -0.000000 -0.000000
2243
root -9.193716 33.117380 -5.621923 18.926941 31.913899 20.235720
Spine 0.722447 -0.944868 -2.929187
Head -5.183575 11.615065 -1.877135
LeftShoulder -0.276385 6.358034 13.805747
LeftArm 40.033946 -11.274696 -78.342551
LeftForeArm 3.045635 -0.000000 65.440805
LeftHand -25.717451 -0.000000 32.695798
LeftHandThumb1 -26.253704 0.000000 33.147579
RightShoulder -14.000210 12.126783 -20.332874
RightArm -11.348645 -27.178488 76.041222
RightForeArm -21.802306 0.000000 28.684966
RightHand -4.031812 -0.000000 11.138782
RightHandThumb1 -24.326973 -0.000000 -32.862282
LeftUpLeg -83.837142 32.114387 -8.815599
LeftLeg 85.862652 -0.000000 -0.000000
LeftFoot 36.632052 16.404537 -21.530743
LeftToeBase 7.738619 -0.000000 -0.000000
RightUpLeg -21.505828 -17.579301 -6.298627
RightLeg 23.057765 -0.000000 -0.000000
RightFoot -13.974304 -31.484831 -3.597219
RightToeBase 0.278848 -0.000000 -0.000000
2244
root -9.191375 33.112121 -5.611860 18.874261 31.916638 20.116659
Spine 0.658287 -0.928573 -2.823956
Head -5.137884 11.646129 -1.869247
LeftShoulder -0.266593 6.372432 13.785236
LeftArm 40.001756 -11.175586 -78.302448
LeftForeArm 3.010272 -0.000000 65.573617
LeftHand -25.799392 -0.000000 32.826292
LeftHandThumb1 -26.253704 0.000000 33.147579
RightShoulder -14.000921 12.117956 -20.303100
RightArm -11.351302 -27.129781 76.037954
RightForeArm -21.821916 0.000000 28.600759
RightHand -4.059831 0.000000 11.102092
RightHandThumb1 -24.326973 -0.000000 -32.862282
LeftUpLeg -83.978761 32.158912 -8.988730
LeftLeg 87.103815 -0.000000 -0.000000
LeftFoot 36.467554 16.493821 -21.628786
LeftToeBase 7.680697 -0.000000 -0.000000
RightUpLeg -21.492684 -17.505083 -6.203193
RightLeg 23.045245 -0.000000 -0.000000
RightFoot -13.985692 -31.486002 -3.593178
RightToeBase 0.387911 -0.000000 -0.000000
2245
root -9.189788 33.107252 -5.602345 18.817059 31.917121 19.993836
Spine 0.608375 -0.913709 -2.704365
Head -5.123758 11.699115 -1.896987
LeftShoulder -0.298523 6.385134 13.766652
LeftArm 39.996934 -11.056767 -78.328446
LeftForeArm 3.134799 -0.000000 65.674497
LeftHand -25.851999 -0.000000 32.686600
LeftHandThumb1 -26.253704 0.000000 33.147579
RightShoulder -13.978341 12.172721 -20.304836
RightArm -11.434600 -27.086902 76.091330
RightForeArm -21.820023 -0.000000 28.520234
RightHand -4.105412 0.000000 11.020748
RightHandThumb1 -24.326973 -0.000000 -32.862282
LeftUpLeg -84.093428 32.219927 -9.133940
LeftLeg 88.251674 -0.000000 -0.000000
LeftFoot 36.282328 16.625835 -21.831637
LeftToeBase 7.761669 -0.000000 -0.000000
RightUpLeg -21.479723 -17.439514 -6.102653
RightLeg 23.022400 -0.000000 -0.000000
RightFoot -13.981498 -31.493853 -3.597608
RightToeBase 0.359251 -0.000000 -0.000000
2246
root -9.188532 33.103017 -5.593069 18.760724 31.899996 19.864469
Spine 0.549470 -0.860416 -2.585519
Head -5.100743 11.740473 -1.917703
LeftShoulder -0.309505 6.427794 13.756859
LeftArm 40.016422 -10.954283 -78.380992
LeftForeArm 3.247192 -0.000000 65.783649
LeftHand -25.909473 -0.000000 32.625547
LeftHandThumb1 -26.253704 0.000000 33.147579
RightShoulder -13.972643 12.202321 -20.293868
RightArm -11.492795 -27.050007 76.122329
RightForeArm -21.754731 0.000000 28.453985
RightHand -4.148499 0.000000 11.009330
RightHandThumb1 -24.326973 -0.000000 -32.862282
LeftUpLeg -84.187039 32.300445 -9.251801
LeftLeg 89.298189 -0.000000 -0.000000
LeftFoot 36.181092 16.816571 -22.091878
LeftToeBase 7.778454 -0.000000 -0.000000
RightUpLeg -21.474569 -17.373386 -5.994802
RightLeg 23.000359 -0.000000 -0.000000
RightFoot -13.973755 -31.504253 -3.612904
RightToeBase 0.358502 -0.000000 -0.000000
2247
root -9.186336 33.099371 -5.583743 18.697977 31.888323 19.755869
Spine 0.516522 -0.818097 -2.482847
Head -5.081530 11.778674 -1.956938
LeftShoulder -0.321962 6.457730 13.745500
LeftArm 40.024623 -10.828923 -78.388247
LeftForeArm 3.320931 0.000000 65.898473
LeftHand -25.985728 0.000000 32.648520
LeftHandThumb1 -26.253704 0.000000 33.147579
RightShoulder -13.984594 12.210176 -20.304245
RightArm -11.496364 -27.029638 76.168422
RightForeArm -21.678365 -0.000000 28.369482
RightHand -4.137199 -0.000000 11.021786
RightHandThumb1 -24.326973 -0.000000 -32.862282
LeftUpLeg -84.250677 32.375012 -9.385901
LeftLeg 90.278269 -0.000000 -0.000000
LeftFoot 36.000121 16.856659 -21.949824
LeftToeBase 8.069853 -0.000000 -0.000000
RightUpLeg -21.455701 -17.333535 -5.905239
RightLeg 22.994914 -0.000000 -0.000000
RightFoot -13.985026 -31.507791 -3.606297
RightToeBase 0.384024 -0.000000 -0.000000
2248
root -9.184763 33.096108 -5.573885 18.635012 31.880229 19.649023
Spine 0.485480 -0.799465 -2.386373
Head -5.062880 11.822897 -1.977435
LeftShoulder -0.351085 6.475645 13.742062
LeftArm 40.007226 -10.685376 -78.363515
LeftForeArm 3.355722 -0.000000 66.011479
LeftHand -26.011308 -0.000000 32.720592
LeftHandThumb1 -26.253704 0.000000 33.147579
RightShoulder -13.967120 12.244694 -20.305180
RightArm -11.527542 -26.960109 76.235691
RightForeArm -21.684113 -0.000000 28.293852
RightHand -4.175532 0.000000 10.989965
RightHandThumb1 -24.326973 -0.000000 -32.862282
LeftUpLeg -84.280081 32.448933 -9.486219
LeftLeg 91.145073 -0.000000 -0.000000
LeftFoot 35.879975 16.964193 -21.925054
LeftToeBase 8.235237 -0.000000 -0.000000
RightUpLeg -21.430640 -17.312387 -5.810787
RightLeg 22.974687 -0.000000 -0.000000
RightFoot -13.981067 -31.501134 -3.624568
RightToeBase 0.391006 -0.000000 -0.000000
2249
root -9.181104 33.094526 -5.565704 18.589697 31.871029 19.573843
Spine 0.455287 -0.784839 -2.313267
Head -5.046197 11.876383 -2.008272
LeftShoulder -0.386745 6.521749 13.744425
LeftArm 40.024957 -10.561764 -78.362696
LeftForeArm 3.388153 -0.000000 66.100142
LeftHand -26.019967 0.000000 32.675917
LeftHandThumb1 -26.253704 0.000000 33.147579
RightShoulder -13.954642 12.284686 -20.315005
RightArm -11.563105 -26.931763 76.305759
RightForeArm -21.713753 -0.000000 28.227621
RightHand -4.182823 -0.000000 10.973530
RightHandThumb1 -24.326973 -0.000000 -32.862282
LeftUpLeg -84.225500 32.496544 -9.494703
LeftLeg 91.943787 -0.000000 -0.000000
LeftFoot 35.715296 16.906654 -22.132912
LeftToeBase 8.357490 -0.000000 -0.000000
RightUpLeg -21.398661 -17.316135 -5.744461
RightLeg 22.937152 -0.000000 -0.000000
RightFoot -13.981137 -31.466437 -3.635442
RightToeBase 0.393174 -0.000000 -0.000000
2250
root -9.178358 33.093562 -5.557270 18.547356 31.865580 19.512954
Spine 0.436149 -0.775338 -2.267615
Head -5.038408 11.900824 -2.003421
LeftShoulder -0.418902 6.536085 13.761646
LeftArm 40.015359 -10.412572 -78.320625
LeftForeArm 3.397351 -0.000000 66.177034
LeftHand -26.054896 -0.000000 32.622417
LeftHandThumb1 -26.253704 0.000000 33.147579
RightShoulder -13.947415 12.311231 -20.306957
RightArm -11.580172 -26.860231 76.371287
RightForeArm -21.768801 -0.000000 28.176139
RightHand -4.088448 0.000000 10.990195
RightHandThumb1 -24.326973 -0.000000 -32.862282
LeftUpLeg -84.180084 32.543638 -9.537260
LeftLeg 92.625707 -0.000000 -0.000000
LeftFoot 35.737341 16.894258 -22.015069
LeftToeBase 8.018407 -0.000000 -0.000000
RightUpLeg -21.360833 -17.318528 -5.692246
RightLeg 22.904250 -0.000000 -0.000000
RightFoot -13.960011 -31.457954 -3.685201
RightToeBase 0.404705 -0.000000 -0.000000
2251
root -9.175495 33.093943 -5.548822 18.515993 31.873932 19.463584
Spine 0.405957 -0.782424 -2.225844
Head -5.020502 11.909043 -2.009141
LeftShoulder -0.464394 6.598712 13.757609
LeftArm 40.081888 -10.213695 -78.213462
LeftForeArm 3.615962 -0.000000 66.200789
LeftHand -26.244539 0.000000 32.941960
LeftHandThumb1 -26.253704 0.000000 33.147579
RightShoulder -13.935836 12.337739 -20.307420
RightArm -11.589157 -26.786931 76.441949
RightForeArm -21.793537 0.000000 28.109391
RightHand -4.027156 -0.000000 11.040957
RightHandThumb1 -24.326973 -0.000000 -32.862282
LeftUpLeg -84.101036 32.568415 -9.542699
LeftLeg 93.232855 -0.000000 -0.000000
LeftFoot 35.625210 16.900291 -22.039550
LeftToeBase 8.260254 -0.000000 -0.000000
RightUpLeg -21.318023 -17.339028 -5.646119
RightLeg 22.857276 -0.000000 -0.000000
RightFoot -13.943977 -31.424373 -3.707314
RightToeBase 0.347141 -0.000000 -0.000000
2252
root -9.173245 33.093965 -5.541075 18.487025 31.894923 19.422375
Spine 0.385074 -0.798855 -2.192532
Head -5.006707 11.904067 -2.006148
LeftShoulder -0.504230 6.636444 13.772675
LeftArm 40.133272 -10.054075 -78.157440
LeftForeArm 3.646261 -0.000000 66.213310
LeftHand -26.291810 0.000000 33.022415
LeftHandThumb1 -26.253704 0.000000 33.147579
RightShoulder -13.955888 12.317420 -20.292798
RightArm -11.526386 -26.760414 76.482159
RightForeArm -21.796694 -0.000000 28.073379
RightHand -4.085572 0.000000 11.009954
RightHandThumb1 -24.326973 -0.000000 -32.862282
LeftUpLeg -84.006497 32.566934 -9.519345
LeftLeg 93.748147 -0.000000 -0.000000
LeftFoot 35.581994 17.157817 -22.268588
LeftToeBase 8.053660 -0.000000 -0.000000
RightUpLeg -21.275726 -17.385936 -5.597091
RightLeg 22.812774 -0.000000 -0.000000
RightFoot -13.924888 -31.417238 -3.777057
RightToeBase 0.375159 -0.000000 -0.000000
2253
root -9.171205 33.095297 -5.533762 18.473652 31.912309 19.398093
Spine 0.361619 -0.822986 -2.171172
Head -5.010913 11.903644 -2.030612
LeftShoulder -0.537825 6.645969 13.771032
LeftArm 40.147718 -9.933605 -78.089774
LeftForeArm 3.628651 0.000000 66.230040
LeftHand -26.292260 0.000000 33.036843
LeftHandThumb1 -26.253704 0.000000 33.147579
RightShoulder -13.960285 12.329036 -20.309542
RightArm -11.522998 -26.712031 76.582304
RightForeArm -21.833609 -0.000000 28.069223
RightHand -4.141101 -0.000000 11.008984
RightHandThumb1 -24.326973 -0.000000 -32.862282
LeftUpLeg -83.868187 32.551740 -9.453825
LeftLeg 94.188988 -0.000000 -0.000000
LeftFoot 35.535409 17.153693 -22.293145
LeftToeBase 7.946499 -0.000000 -0.000000
RightUpLeg -21.238847 -17.424513 -5.566133
RightLeg 22.768437 -0.000000 -0.000000
RightFoot -13.901906 -31.381533 -3.801416
RightToeBase 0.345808 -0.000000 -0.000000
